<?xml version="1.0" encoding="UTF-8"?>
<svg id="Ebene_1" data-name="Ebene 1" xmlns="http://www.w3.org/2000/svg" viewBox="0 0 311.05 161.22">
  <defs>
    <style>
      .cls-1 {
        fill: #2ea3f0;
      }

      .cls-2 {
        fill: #004aad;
      }
    </style>
  </defs>
  <path class="cls-2" d="M216.63,24.84c-2.3-10.47-9.94-16.46-11.99-18.03-1.87-1.42-6.17-4.38-12.45-5.89-5.53-1.32-10.02-.9-11.77-.67-6.43,.81-10.92,3.37-12.44,4.3-1.68,1.02-6.04,3.89-9.66,9.28-1.65,2.45-2.75,4.75-3.39,6.44V61.44c3.3,.02,6.85,.01,9.07-.04,5.02-.13,4.71,3.64,4.71,3.64,0,0,.05,18.86,.05,22.67,0,3.33-3.24,3.57-3.24,3.57h-10.59v18.22c10.19-7.48,18.35-14.45,24.44-19.99,11.38-10.37,17.81-17.86,21.12-21.88,4.11-5.01,8.31-10.66,11.99-18.19,3.24-6.62,4.25-10.94,4.6-14.71,.2-2.09,.5-5.58-.45-9.89Zm-73.98,69.38v5.77c3.69,3.02,7.79,6.22,12.28,9.51v-18.22h-8.96c-3.28,0-3.32,2.94-3.32,2.94Zm8.88-80.39c-3.62-5.39-7.97-8.26-9.65-9.28-1.53-.93-6.02-3.49-12.45-4.3-1.75-.23-6.23-.65-11.77,.67-6.28,1.51-10.58,4.47-12.44,5.89-2.06,1.57-9.69,7.56-11.99,18.03-.95,4.31-.65,7.8-.46,9.89,.36,3.77,1.36,8.09,4.6,14.71,2.43,4.97,5.09,9.11,7.8,12.8,.99,0,2.97,0,6.75-.03,6.43-.04,6.44-4.52,6.44-4.55,0,0-.03-12.98,0-17.96,.02-4.98,3.68-4.6,3.68-4.6,0,0,8.56-.01,15.04,0,6.48,.02,5.57,5.35,5.57,5.35,0,0-.01,12.34,0,16.5,.01,4.16,4.33,4.44,4.33,4.44,0,0,3.76,.04,7.95,.05V20.27c-.64-1.69-1.75-3.99-3.4-6.44Z"/>
  <path class="cls-1" d="M204.51,41.47c-1.85-8.42-7.98-13.23-9.64-14.49-1.49-1.14-4.95-3.52-10-4.73-4.44-1.07-8.05-.73-9.45-.55-5.17,.66-8.78,2.71-10.01,3.46-1.35,.82-4.85,3.13-7.75,7.46-1.33,1.97-2.22,3.82-2.73,5.17v23.65c3.3,.02,6.85,.01,9.07-.04,5.02-.13,4.71,3.64,4.71,3.64,0,0,.05,18.86,.05,22.67,0,3.33-3.24,3.57-3.24,3.57h-10.59v18.22c8.19-6.01,14.75-11.61,19.64-16.07,9.15-8.33,14.31-14.35,16.97-17.58,3.3-4.02,6.68-8.57,9.64-14.61,2.6-5.32,3.41-8.8,3.7-11.83,.15-1.67,.39-4.48-.37-7.94Zm-52.31-8.85c-2.91-4.33-6.41-6.64-7.76-7.46-1.23-.75-4.83-2.8-10-3.46-1.41-.18-5.01-.52-9.46,.55-5.05,1.21-8.5,3.59-10,4.73-1.65,1.26-7.79,6.07-9.64,14.49-.76,3.46-.52,6.27-.36,7.94,.28,3.03,1.09,6.51,3.7,11.83,.16,.33,.33,.66,.5,.99,.79-.01,1.7-.01,2.74-.02,6.43-.04,6.44-4.52,6.44-4.55,0,0-.03-12.98,0-17.96,.02-4.98,3.68-4.6,3.68-4.6,0,0,8.56-.01,15.04,0,6.48,.02,5.57,5.35,5.57,5.35,0,0-.01,12.34,0,16.5,.01,4.16,4.33,4.44,4.33,4.44,0,0,3.76,.04,7.95,.05v-23.65c-.52-1.35-1.4-3.2-2.73-5.17Zm-6.23,58.66c-3.28,0-3.32,2.94-3.32,2.94v5.65c3.57,2.99,7.67,6.25,12.28,9.63v-18.22h-8.96Z"/>
  <g>
    <path class="cls-2" d="M4.4,129.12v9.65H0v-26.61H8.07c3.06,0,5.42,.71,7.11,2.13,1.68,1.42,2.52,3.43,2.52,6.01s-.88,4.7-2.63,6.35c-1.76,1.65-4.13,2.47-7.12,2.47h-3.54Zm0-13.32v9.72h2.86c1.89,0,3.33-.44,4.32-1.32,.99-.88,1.48-2.12,1.48-3.71,0-3.13-1.82-4.69-5.46-4.69h-3.21Z"/>
    <path class="cls-2" d="M32.75,123.87c-.52-.41-1.27-.61-2.25-.61-1.27,0-2.34,.58-3.19,1.73s-1.28,2.72-1.28,4.69v9.09h-4.3v-19h4.3v3.92h.07c.42-1.34,1.07-2.38,1.94-3.13,.87-.75,1.85-1.12,2.92-1.12,.78,0,1.37,.12,1.78,.35v4.08Z"/>
    <path class="cls-2" d="M50.38,138.77h-4.17v-2.97h-.07c-1.31,2.28-3.23,3.41-5.77,3.41-1.87,0-3.33-.51-4.39-1.52-1.06-1.01-1.59-2.36-1.59-4.03,0-3.59,2.07-5.68,6.2-6.27l5.64-.8c0-2.71-1.29-4.06-3.86-4.06-2.26,0-4.3,.78-6.12,2.34v-3.77c2-1.19,4.32-1.78,6.94-1.78,4.8,0,7.2,2.36,7.2,7.09v12.36Zm-4.16-9.33l-3.99,.56c-1.24,.16-2.17,.46-2.79,.9-.62,.44-.94,1.21-.94,2.31,0,.8,.29,1.46,.86,1.98,.58,.51,1.35,.77,2.31,.77,1.31,0,2.4-.46,3.26-1.38,.86-.92,1.29-2.08,1.29-3.48v-1.65Z"/>
    <path class="cls-2" d="M71.51,119.77l-6.33,9.61,6.25,9.39h-4.99l-3.34-5.88c-.21-.36-.46-.82-.74-1.37h-.07c-.05,.11-.31,.57-.78,1.37l-3.4,5.88h-4.97l6.46-9.31-6.12-9.69h5.01l3.28,6.18c.25,.46,.49,.93,.72,1.41h.06l4.25-7.59h4.71Z"/>
    <path class="cls-2" d="M76.83,115.78c-.71,0-1.31-.23-1.81-.69-.5-.46-.75-1.04-.75-1.74s.25-1.29,.75-1.76c.5-.47,1.1-.71,1.81-.71s1.35,.24,1.86,.71c.51,.47,.76,1.06,.76,1.76,0,.67-.25,1.24-.76,1.72-.51,.48-1.13,.71-1.86,.71Zm2.13,22.99h-4.3v-19h4.3v19Z"/>
    <path class="cls-2" d="M83.4,138.18v-3.99c1.61,1.22,3.38,1.84,5.33,1.84,2.6,0,3.9-.77,3.9-2.3,0-.43-.11-.8-.33-1.1-.22-.3-.52-.57-.9-.81-.38-.23-.82-.45-1.34-.63-.51-.19-1.09-.4-1.72-.63-.78-.31-1.48-.64-2.11-.98-.62-.35-1.14-.74-1.56-1.18-.41-.44-.73-.94-.94-1.49-.21-.56-.32-1.21-.32-1.95,0-.92,.22-1.72,.65-2.42,.43-.7,1.01-1.29,1.74-1.76,.73-.48,1.56-.83,2.49-1.08,.93-.24,1.89-.36,2.88-.36,1.76,0,3.33,.27,4.71,.8v3.77c-1.34-.92-2.87-1.37-4.6-1.37-.54,0-1.04,.06-1.48,.17-.44,.11-.81,.27-1.12,.46-.31,.2-.55,.44-.72,.71-.17,.28-.26,.58-.26,.92,0,.41,.09,.75,.26,1.04,.17,.29,.43,.54,.77,.75,.34,.22,.75,.41,1.22,.59,.48,.18,1.02,.37,1.64,.58,.82,.33,1.55,.67,2.2,1.02,.65,.35,1.2,.74,1.66,1.18,.46,.44,.81,.95,1.06,1.52,.25,.57,.37,1.26,.37,2.05,0,.96-.22,1.81-.67,2.52-.45,.72-1.04,1.31-1.78,1.78-.74,.47-1.6,.82-2.57,1.05-.97,.23-1.99,.34-3.07,.34-2.08,0-3.88-.35-5.4-1.04Z"/>
    <path class="cls-2" d="M134.47,138.77h-4.82l-12.71-19.56c-.32-.49-.59-1.01-.8-1.54h-.11c.1,.57,.15,1.79,.15,3.66v17.44h-4.27v-26.61h5.14l12.28,19.09c.52,.79,.85,1.34,1,1.63h.07c-.12-.71-.19-1.9-.19-3.58v-17.14h4.25v26.61Z"/>
    <path class="cls-2" d="M142.74,115.78c-.71,0-1.31-.23-1.81-.69-.5-.46-.75-1.04-.75-1.74s.25-1.29,.75-1.76c.5-.47,1.1-.71,1.81-.71s1.35,.24,1.86,.71c.51,.47,.76,1.06,.76,1.76,0,.67-.25,1.24-.76,1.72-.51,.48-1.13,.71-1.86,.71Zm2.13,22.99h-4.3v-19h4.3v19Z"/>
    <path class="cls-2" d="M166.58,130.44h-12.95c.05,1.76,.59,3.11,1.62,4.06,1.03,.95,2.45,1.43,4.26,1.43,2.03,0,3.89-.61,5.58-1.82v3.47c-1.73,1.09-4.02,1.63-6.87,1.63s-4.99-.86-6.58-2.59c-1.59-1.73-2.38-4.15-2.38-7.28,0-2.96,.88-5.37,2.63-7.23,1.75-1.86,3.92-2.79,6.52-2.79s4.61,.83,6.03,2.5c1.42,1.67,2.13,3.99,2.13,6.96v1.65Zm-4.16-3.04c-.01-1.55-.38-2.75-1.09-3.61-.72-.86-1.71-1.29-2.97-1.29s-2.29,.45-3.15,1.35c-.86,.9-1.39,2.08-1.59,3.54h8.79Z"/>
    <path class="cls-2" d="M187.96,138.77h-4.3v-3.23h-.07c-1.39,2.45-3.52,3.67-6.4,3.67-2.34,0-4.21-.85-5.61-2.55-1.4-1.7-2.11-4.02-2.11-6.95,0-3.14,.78-5.66,2.33-7.55,1.55-1.89,3.62-2.84,6.21-2.84s4.42,1.03,5.58,3.08h.07v-11.76h4.3v28.13Zm-4.25-8.68v-2.49c0-1.35-.44-2.49-1.32-3.43-.88-.94-2-1.41-3.36-1.41-1.61,0-2.87,.6-3.79,1.8-.92,1.2-1.38,2.86-1.38,4.99,0,1.93,.44,3.45,1.33,4.57,.88,1.12,2.08,1.68,3.57,1.68s2.67-.54,3.58-1.62c.92-1.08,1.37-2.45,1.37-4.09Z"/>
    <path class="cls-2" d="M209.67,130.44h-12.95c.05,1.76,.59,3.11,1.62,4.06,1.03,.95,2.45,1.43,4.26,1.43,2.03,0,3.89-.61,5.58-1.82v3.47c-1.73,1.09-4.02,1.63-6.87,1.63s-4.99-.86-6.58-2.59c-1.59-1.73-2.38-4.15-2.38-7.28,0-2.96,.88-5.37,2.63-7.23,1.75-1.86,3.92-2.79,6.52-2.79s4.61,.83,6.03,2.5c1.42,1.67,2.13,3.99,2.13,6.96v1.65Zm-4.16-3.04c-.01-1.55-.38-2.75-1.09-3.61-.72-.86-1.71-1.29-2.97-1.29s-2.29,.45-3.15,1.35c-.86,.9-1.39,2.08-1.59,3.54h8.79Z"/>
    <path class="cls-2" d="M224.79,123.87c-.52-.41-1.27-.61-2.25-.61-1.27,0-2.34,.58-3.19,1.73s-1.28,2.72-1.28,4.69v9.09h-4.3v-19h4.3v3.92h.07c.42-1.34,1.07-2.38,1.94-3.13,.87-.75,1.85-1.12,2.92-1.12,.78,0,1.37,.12,1.78,.35v4.08Z"/>
    <path class="cls-2" d="M238.85,123.87c-.52-.41-1.27-.61-2.25-.61-1.27,0-2.34,.58-3.19,1.73s-1.28,2.72-1.28,4.69v9.09h-4.3v-19h4.3v3.92h.07c.42-1.34,1.07-2.38,1.94-3.13,.87-.75,1.85-1.12,2.92-1.12,.78,0,1.37,.12,1.78,.35v4.08Z"/>
    <path class="cls-2" d="M258.78,138.77h-4.3v-10.39c0-3.76-1.26-5.64-3.77-5.64-1.26,0-2.33,.54-3.19,1.63-.87,1.09-1.3,2.48-1.3,4.17v10.22h-4.32v-28.13h4.32v12.28h.07c1.43-2.4,3.49-3.6,6.16-3.6,4.22,0,6.33,2.58,6.33,7.74v11.71Z"/>
    <path class="cls-2" d="M280.1,130.44h-12.95c.05,1.76,.59,3.11,1.62,4.06,1.03,.95,2.45,1.43,4.26,1.43,2.03,0,3.89-.61,5.58-1.82v3.47c-1.73,1.09-4.02,1.63-6.87,1.63s-4.99-.86-6.58-2.59c-1.59-1.73-2.38-4.15-2.38-7.28,0-2.96,.88-5.37,2.63-7.23,1.75-1.86,3.92-2.79,6.52-2.79s4.61,.83,6.03,2.5c1.42,1.67,2.13,3.99,2.13,6.96v1.65Zm-4.16-3.04c-.01-1.55-.38-2.75-1.09-3.61-.72-.86-1.71-1.29-2.97-1.29s-2.29,.45-3.15,1.35c-.86,.9-1.39,2.08-1.59,3.54h8.79Z"/>
    <path class="cls-2" d="M286.37,115.78c-.71,0-1.31-.23-1.81-.69-.5-.46-.75-1.04-.75-1.74s.25-1.29,.75-1.76c.5-.47,1.1-.71,1.81-.71s1.35,.24,1.86,.71c.51,.47,.76,1.06,.76,1.76,0,.67-.25,1.24-.76,1.72-.51,.48-1.13,.71-1.86,.71Zm2.13,22.99h-4.3v-19h4.3v19Z"/>
    <path class="cls-2" d="M311.05,138.77h-4.3v-10.71c0-3.55-1.26-5.33-3.77-5.33-1.31,0-2.39,.49-3.25,1.47-.85,.98-1.28,2.22-1.28,3.72v10.84h-4.32v-19h4.32v3.15h.07c1.42-2.4,3.48-3.6,6.16-3.6,2.07,0,3.64,.67,4.73,2.01,1.09,1.34,1.63,3.28,1.63,5.82v11.62Z"/>
  </g>
  <g>
    <path class="cls-2" d="M127.26,149.97h1.44v5.38h.05c.3-.43,.6-.83,.88-1.19l3.41-4.19h1.79l-4.04,4.73,4.35,6.42h-1.71l-3.68-5.48-1.06,1.22v4.25h-1.44v-11.16Z"/>
    <path class="cls-2" d="M136.23,150.11c.73-.15,1.77-.23,2.76-.23,1.54,0,2.53,.28,3.23,.91,.56,.5,.88,1.26,.88,2.12,0,1.47-.93,2.45-2.1,2.85v.05c.86,.3,1.37,1.09,1.64,2.25,.36,1.56,.63,2.63,.86,3.06h-1.49c-.18-.31-.43-1.27-.75-2.67-.33-1.54-.93-2.12-2.23-2.17h-1.36v4.83h-1.44v-11.01Zm1.44,5.08h1.47c1.54,0,2.52-.84,2.52-2.12,0-1.44-1.04-2.07-2.57-2.09-.7,0-1.19,.07-1.42,.13v4.07Z"/>
    <path class="cls-2" d="M150.92,155.89h-4.34v4.02h4.83v1.21h-6.27v-11.16h6.03v1.21h-4.59v3.53h4.34v1.19Z"/>
    <path class="cls-2" d="M153.29,149.97h6.01v1.21h-4.57v3.71h4.22v1.19h-4.22v5.05h-1.44v-11.16Z"/>
    <path class="cls-2" d="M167.13,155.89h-4.34v4.02h4.83v1.21h-6.28v-11.16h6.03v1.21h-4.59v3.53h4.34v1.19Z"/>
    <path class="cls-2" d="M169.5,149.97h1.44v9.95h4.77v1.21h-6.21v-11.16Z"/>
    <path class="cls-2" d="M177.32,150.11c.88-.13,1.92-.23,3.06-.23,2.07,0,3.54,.48,4.52,1.39,.99,.91,1.57,2.2,1.57,4.01s-.56,3.31-1.61,4.34c-1.04,1.04-2.76,1.61-4.93,1.61-1.03,0-1.89-.05-2.62-.13v-10.98Zm1.44,9.87c.36,.07,.89,.08,1.46,.08,3.08,0,4.75-1.72,4.75-4.74,.02-2.63-1.47-4.3-4.52-4.3-.75,0-1.31,.07-1.69,.15v8.81Z"/>
  </g>
</svg>